<svg width="256" height="256" viewBox="0 0 256 256" fill="none" xmlns="http://www.w3.org/2000/svg">
<rect width="256" height="256" rx="60" fill="#F4F2ED"/>
<path d="M128 33C75.5585 33 33 75.5585 33 128C33 180.442 75.5585 223 128 223C180.442 223 223 180.442 223 128C223 75.5585 180.442 33 128 33Z" fill="#1ED760"/>
<path d="M188.754 118.462C186.762 118.462 185.536 117.964 183.812 116.968C156.538 100.687 107.774 96.7801 76.2096 105.591C74.8306 105.974 73.1068 106.587 71.2681 106.587C66.2116 106.587 62.3427 102.641 62.3427 97.5462C62.3427 92.3365 65.5604 89.3869 69.008 88.3909C82.4918 84.4454 97.5846 82.5684 114.018 82.5684C141.982 82.5684 171.286 88.3909 192.699 100.879C195.687 102.603 197.641 104.978 197.641 109.536C197.641 114.746 193.427 118.462 188.754 118.462ZM176.879 147.651C174.887 147.651 173.546 146.77 172.167 146.042C148.226 131.869 112.524 126.161 80.7681 134.78C78.9293 135.278 77.9334 135.776 76.2096 135.776C72.1108 135.776 68.7781 132.443 68.7781 128.345C68.7781 124.246 70.7701 121.526 74.7156 120.415C85.3648 117.427 96.2439 115.205 112.179 115.205C137.04 115.205 161.058 121.373 179.982 132.635C183.085 134.474 184.31 136.849 184.31 140.181C184.272 144.318 181.054 147.651 176.879 147.651ZM166.574 172.78C164.966 172.78 163.97 172.282 162.476 171.401C138.572 156.998 110.762 156.385 83.2963 162.016C81.8023 162.399 79.8487 163.012 78.7378 163.012C75.0221 163.012 72.6854 160.062 72.6854 156.959C72.6854 153.014 75.0221 151.137 77.8951 150.524C109.268 143.591 141.331 144.203 168.681 160.56C171.018 162.054 172.397 163.395 172.397 166.881C172.397 170.367 169.677 172.78 166.574 172.78Z" fill="black"/>
</svg>
