<svg width="256" height="256" viewBox="0 0 256 256" fill="none" xmlns="http://www.w3.org/2000/svg">
<rect width="256" height="256" rx="60" fill="#1A348F"/>
<path opacity="0.3" d="M225.718 139.068H225.998C228.566 139.129 231.073 138.284 233.081 136.682C234.225 135.715 235.161 134.527 235.835 133.189C236.508 131.851 236.905 130.391 237 128.896V127.741C236.79 125.109 235.611 122.649 233.691 120.835C231.772 119.022 229.249 117.985 226.609 117.924H226.541C221.353 117.924 216.166 117.924 210.97 117.924H199.235V97.9581H225.763H226.02C228.83 98.0439 231.56 97.0158 233.615 95.0978C235.67 93.1798 236.884 90.5274 236.992 87.7183V87.0387V86.797C236.888 85.1268 236.392 83.5045 235.545 82.0614C234.697 80.6184 233.522 79.3951 232.114 78.4904C230.233 77.2981 228.034 76.7056 225.809 76.7914H198.903C198.684 74.0826 197.972 71.4366 196.804 68.9831C195.5 66.3866 193.694 64.0744 191.49 62.1807C189.287 60.2869 186.729 58.8491 183.966 57.9505C182.428 57.4343 180.833 57.1047 179.216 56.9688V45.0299C179.216 39.8194 179.216 34.6089 179.216 29.4512C179.16 26.7179 178.057 24.1103 176.135 22.1659C174.213 20.2215 171.618 19.0884 168.886 19H168.01C165.329 19.1553 162.808 20.325 160.958 22.2717C159.108 24.2184 158.068 26.7961 158.049 29.4814C158.049 35.291 158.049 41.0956 158.049 46.8951V56.7573H138.068V45.2866C138.068 40.0006 138.068 34.7146 138.068 29.5267C138.04 26.8043 136.97 24.1961 135.078 22.2382C133.186 20.2803 130.616 19.1215 127.896 19H126.741C124.097 19.2031 121.624 20.3869 119.808 22.319C117.992 24.2512 116.963 26.7922 116.924 29.4437C116.924 34.6391 116.924 39.8345 116.924 45.0299V56.8177C110.284 56.8177 103.641 56.8177 96.9959 56.8177V44.5844C96.9959 39.5551 96.9959 34.5258 96.9959 29.5645C97.005 28.1984 96.7427 26.8441 96.2242 25.5801C95.7057 24.3162 94.9412 23.1679 93.9753 22.2018C92.021 20.1915 89.3481 19.0397 86.5446 19H85.9632C83.268 19.1315 80.7233 20.2815 78.8435 22.2174C76.9636 24.1533 75.889 26.7307 75.8367 29.4286C75.8367 34.5862 75.8367 39.7439 75.8367 44.9015V56.9839C71.699 57.3867 67.7582 58.946 64.4651 61.4833C61.1719 64.0206 58.6594 67.4335 57.2148 71.3317C56.5741 73.0988 56.1654 74.9417 55.999 76.814H44.1054C38.8722 76.814 33.6391 76.814 28.4512 76.814H28.3908C25.6975 76.8814 23.1293 77.9651 21.2019 79.8477C19.2746 81.7302 18.1307 84.2722 18 86.9632V87.6806C18.0562 89.2923 18.4759 90.8704 19.2278 92.297C19.9797 93.7237 21.0443 94.9619 22.3421 95.9192C24.2919 97.3151 26.643 98.0387 29.0402 97.9808H29.1686H55.7649V117.924H44.0374C38.8571 117.924 33.6542 117.924 28.5041 117.924C25.8369 117.985 23.2868 119.032 21.3466 120.863C19.4065 122.694 18.2142 125.18 18 127.839V129.251C18.1899 131.904 19.3727 134.388 21.3126 136.208C23.2524 138.027 25.8068 139.048 28.4663 139.068C33.8354 139.068 39.2121 139.068 44.5887 139.068H55.7573V159.08H53.5523C48.9232 159.027 44.2942 159.08 39.6727 159.08H29.9842C27.5671 158.918 25.156 159.473 23.0519 160.673C21.5834 161.598 20.3581 162.862 19.4791 164.359C18.6 165.855 18.0928 167.541 18 169.274V170.029C18.1504 172.707 19.301 175.231 21.224 177.101C23.147 178.971 25.7021 180.05 28.3833 180.126H28.421C31.6682 180.126 34.9153 180.126 38.1624 180.126H56.1047C56.4116 184.408 58.0005 188.499 60.6645 191.866C63.3285 195.233 66.9444 197.721 71.0415 199.004C72.5858 199.515 74.1854 199.839 75.8065 199.971V212.204C75.8065 217.324 75.8065 222.429 75.8065 227.496C75.8521 228.884 76.1707 230.25 76.7441 231.515C77.3176 232.78 78.1346 233.92 79.1486 234.87C80.1625 235.819 81.3536 236.56 82.6537 237.049C83.9538 237.538 85.3375 237.766 86.7259 237.721C88.1142 237.675 89.48 237.356 90.7452 236.783C92.0104 236.21 93.1503 235.392 94.0997 234.379C95.0492 233.365 95.7896 232.174 96.2787 230.873C96.7679 229.573 96.9962 228.19 96.9506 226.801V200.167H116.924V226.718C116.844 228.128 117.044 229.54 117.513 230.872C117.982 232.204 118.711 233.43 119.657 234.479C120.603 235.527 121.747 236.378 123.024 236.981C124.301 237.584 125.685 237.928 127.096 237.992H128.251C130.896 237.784 133.368 236.597 135.183 234.662C136.999 232.728 138.028 230.186 138.068 227.534C138.098 222.167 138.098 216.803 138.068 211.442V200.235H158.034V227.42C158.076 230.155 159.158 232.77 161.06 234.735C162.963 236.699 165.543 237.864 168.274 237.992H169.173C170.99 237.887 172.749 237.318 174.283 236.338C175.817 235.358 177.073 234.001 177.932 232.397C178.897 230.447 179.332 228.278 179.194 226.106V200.039C180.787 199.903 182.359 199.579 183.875 199.072C187.209 197.994 190.239 196.139 192.715 193.661C195.191 191.182 197.043 188.15 198.118 184.815C198.597 183.311 198.908 181.759 199.046 180.186H210.985C216.173 180.186 221.368 180.186 226.519 180.186H226.579C229.296 180.106 231.882 178.999 233.814 177.087C235.747 175.175 236.883 172.602 236.992 169.886V168.995C236.82 166.328 235.651 163.825 233.718 161.981C231.784 160.137 229.228 159.088 226.556 159.042C221.134 159.042 215.712 159.042 210.29 159.042H199.235V139.068H225.718Z" fill="#C5C5C5"/>
<path d="M86.0765 22.7759H86.4993C88.2683 22.8223 89.9511 23.5492 91.1975 24.8054C92.4438 26.0616 93.1575 27.7501 93.1899 29.5193C93.2352 37.8864 93.1899 46.2534 93.1899 54.6204C88.659 54.6204 84.1282 54.6204 79.5973 54.6204C79.5973 46.2307 79.5973 37.8411 79.5973 29.4514C79.6385 27.7274 80.3286 26.0824 81.5297 24.8449C82.7308 23.6074 84.3544 22.8686 86.0765 22.7759Z" fill="#1A348F"/>
<path d="M127.02 22.7759H127.896C129.606 22.8995 131.207 23.6558 132.389 24.8972C133.57 26.1386 134.246 27.7759 134.285 29.4891C134.33 37.8637 134.285 46.2458 134.285 54.628H120.7C120.7 46.2458 120.7 37.8637 120.7 29.4816C120.737 27.78 121.404 26.1526 122.571 24.9141C123.739 23.6755 125.324 22.9137 127.02 22.7759Z" fill="#1A348F"/>
<path d="M168.214 22.7759H168.886C170.606 22.8664 172.228 23.6012 173.43 24.8341C174.632 26.067 175.326 27.7074 175.373 29.4287C175.426 37.8259 175.373 46.2307 175.373 54.628H161.78C161.78 46.2534 161.78 37.8864 161.78 29.5118C161.814 27.7873 162.494 26.1384 163.685 24.8911C164.877 23.6439 166.493 22.889 168.214 22.7759Z" fill="#1A348F"/>
<path d="M21.7758 87.0996C21.8681 85.3793 22.6045 83.7569 23.8387 82.555C25.0728 81.353 26.7141 80.6597 28.4361 80.6128C36.8334 80.56 45.2231 80.6128 53.6127 80.6128C53.6127 85.1437 53.6127 89.6746 53.6127 94.2055C45.4647 94.2055 37.3167 94.2055 29.1686 94.2055C27.5565 94.274 25.9659 93.8154 24.6378 92.8991C23.7823 92.2752 23.0801 91.4649 22.5842 90.5294C22.0884 89.594 21.8119 88.5579 21.7758 87.4998V87.0996Z" fill="#1A348F"/>
<path d="M201.395 80.582H225.809C227.296 80.5164 228.77 80.8921 230.045 81.6619C230.959 82.2533 231.721 83.0503 232.272 83.9891C232.823 84.928 233.146 85.9826 233.217 87.0688V87.5067C233.182 88.435 232.964 89.3473 232.575 90.191C232.186 91.0347 231.634 91.7931 230.951 92.4227C229.54 93.6513 227.707 94.2848 225.839 94.1898C217.691 94.1898 209.543 94.1898 201.395 94.1898C201.395 89.6539 201.395 85.118 201.395 80.582Z" fill="#1A348F"/>
<path d="M21.7758 128.073C21.908 126.371 22.6669 124.779 23.9057 123.604C25.1444 122.43 26.7749 121.757 28.4815 121.715C36.856 121.662 45.2382 121.715 53.6127 121.715C53.6127 126.246 53.6127 130.777 53.6127 135.308C45.2382 135.308 36.8711 135.308 28.4966 135.308C26.792 135.267 25.1627 134.597 23.922 133.428C22.6813 132.258 21.9169 130.671 21.7758 128.972V128.073Z" fill="#1A348F"/>
<path d="M201.395 121.7C209.769 121.7 218.144 121.7 226.511 121.7C228.21 121.74 229.834 122.406 231.073 123.569C232.312 124.733 233.078 126.313 233.224 128.006V128.889C233.063 130.77 232.165 132.51 230.725 133.73C229.329 134.828 227.583 135.383 225.809 135.293H201.395C201.39 130.762 201.39 126.231 201.395 121.7Z" fill="#1A348F"/>
<path d="M25.0455 163.822C26.5251 163.002 28.2163 162.644 29.9011 162.795C37.7773 162.84 45.6535 162.749 53.5297 162.84C53.7411 167.371 53.5297 171.902 53.6203 176.433C45.2382 176.433 36.8485 176.433 28.4664 176.433C26.7333 176.387 25.0812 175.689 23.8407 174.478C22.6002 173.267 21.8627 171.632 21.7758 169.901V169.274C21.8506 168.171 22.186 167.102 22.7544 166.154C23.3228 165.207 24.1081 164.407 25.0455 163.822Z" fill="#1A348F"/>
<path d="M201.395 162.803C209.762 162.803 218.129 162.803 226.496 162.803C228.211 162.843 229.849 163.521 231.091 164.703C232.334 165.886 233.091 167.488 233.217 169.199V169.878C233.119 171.604 232.374 173.23 231.131 174.432C229.889 175.634 228.239 176.324 226.511 176.365C218.136 176.418 209.762 176.365 201.395 176.365C201.395 171.865 201.387 167.334 201.395 162.803Z" fill="#1A348F"/>
<path d="M79.5898 202.357H93.1824C93.1824 210.521 93.1824 218.684 93.1824 226.847C93.2753 228.716 92.6391 230.549 91.4078 231.959C90.7769 232.645 90.0162 233.198 89.1696 233.587C88.3231 233.976 87.4077 234.193 86.4767 234.225H86.084C84.3619 234.136 82.7366 233.401 81.5327 232.166C80.3288 230.931 79.635 229.288 79.5898 227.564C79.552 219.159 79.6049 210.762 79.5898 202.357Z" fill="#1A348F"/>
<path d="M120.7 202.357H134.293C134.293 210.74 134.293 219.122 134.293 227.504C134.252 229.204 133.586 230.829 132.42 232.068C131.255 233.307 129.674 234.072 127.979 234.217H127.104C125.309 234.068 123.638 233.242 122.429 231.906C121.228 230.494 120.612 228.676 120.707 226.824C120.702 218.664 120.7 210.508 120.7 202.357Z" fill="#1A348F"/>
<path d="M161.833 227.466C161.833 219.099 161.833 210.724 161.833 202.357H175.425C175.425 210.271 175.425 218.215 175.425 226.099C175.55 227.628 175.276 229.163 174.632 230.555C174.072 231.601 173.253 232.486 172.254 233.126C171.255 233.765 170.108 234.139 168.924 234.21H168.274C166.55 234.1 164.93 233.345 163.736 232.096C162.543 230.846 161.863 229.194 161.833 227.466Z" fill="#1A348F"/>
<path d="M193.436 70.72C192.343 68.5527 190.832 66.6238 188.988 65.0449C187.145 63.4661 185.007 62.2688 182.697 61.5223C180.112 60.756 177.417 60.4218 174.723 60.5331C142.252 60.5935 109.78 60.45 77.2713 60.6086C73.6285 60.7512 70.1102 61.9729 67.1631 64.1188C64.2159 66.2646 61.9728 69.2377 60.7185 72.6607C59.7024 75.9005 59.3003 79.3016 59.5329 82.6891C59.5329 114.154 59.5329 145.618 59.5329 177.082C59.4717 180.268 60.1652 183.422 61.5567 186.288C62.6489 188.452 64.1587 190.378 65.9992 191.955C67.8396 193.532 69.9742 194.73 72.2798 195.478C75.3222 196.324 78.4844 196.655 81.6361 196.459H173.333C176.494 196.665 179.666 196.341 182.72 195.5C185.488 194.598 188.001 193.051 190.052 190.985C192.103 188.92 193.633 186.396 194.515 183.622C195.334 180.601 195.653 177.466 195.459 174.341C195.459 142.877 195.459 111.412 195.459 79.9479C195.52 76.7555 194.827 73.5938 193.436 70.72Z" fill="#1A348F"/>
<path d="M63.3088 70.403L63.9431 68.8927C68.8163 68.8927 73.687 68.9531 78.5552 69.0739H81.5305C82.4316 69.0739 83.4234 69.0437 84.5057 68.9833C88.4124 68.802 95.478 68.7114 105.703 68.7114C107.747 68.7114 109.73 68.7265 111.653 68.7567C113.576 68.7869 115.442 68.8323 117.249 68.8927C117.604 69.0656 117.891 69.3528 118.064 69.7082L117.883 71.1505C117.521 71.7496 116.62 72.0492 115.18 72.0492H114.425C111.65 72.0369 108.878 72.173 106.118 72.457C103.489 72.4616 100.9 73.096 98.5666 74.3071C98.1856 74.6249 97.8822 75.0254 97.6794 75.4782C97.4766 75.931 97.3797 76.424 97.3961 76.9199C97.7418 80.5945 98.7498 84.1763 100.371 87.4919L114.1 119.336L118.888 129.908C123.524 141.095 128.103 152.52 132.624 164.185C133.127 165.448 133.578 166.591 133.975 167.613L140.017 152.82C143.138 145.364 146.289 137.425 149.471 129.002L155.686 112.042C155.807 111.679 156.136 110.476 156.675 108.432C160.812 98.7589 163.747 88.6144 165.412 78.2263C165.356 77.1922 164.924 76.2144 164.196 75.4775C163.108 74.3923 161.754 73.6112 160.27 73.2121C157.948 72.7091 155.597 72.3485 153.232 72.1322L146.556 71.3167C146.118 70.9229 145.829 70.3891 145.741 69.8064L146.012 69.0512L175.237 68.7794H184.887C187.134 68.6687 189.385 68.8823 191.57 69.4137L191.661 70.1689C191.612 70.8313 191.427 71.4765 191.117 72.0643C189.83 72.5091 188.498 72.8105 187.145 72.9629C183.913 73.1055 180.731 73.8241 177.751 75.0849C176.1 76.491 174.806 78.269 173.975 80.2727L150.309 138.91C142.929 156.53 137.678 170.18 134.557 179.861L131.952 187.707C131.37 188.133 130.683 188.394 129.966 188.463C129.203 188.455 128.443 188.364 127.7 188.191C120.541 169.685 114.707 155.385 110.196 145.291L82.6028 82.5835C81.4964 80.1121 79.9884 77.8411 78.1399 75.8627C74.8255 74.3397 71.3238 73.2631 67.7264 72.6608C66.5377 72.4265 65.3629 72.1265 64.2074 71.7622C63.7622 71.4243 63.4453 70.9449 63.3088 70.403Z" fill="#C5C2FF"/>
</svg>
